<?xml version="1.0" encoding="utf-8" standalone="yes"?>
<!DOCTYPE svg PUBLIC "-//W3C//DTD SVG 1.1//EN" "http://www.w3.org/Graphics/SVG/1.1/DTD/svg11.dtd">
<svg style="fill:none;stroke:none;fill-rule:evenodd;clip-rule:evenodd;stroke-linecap:round;stroke-linejoin:round;stroke-miterlimit:1.5;" version="1.1" xmlns="http://www.w3.org/2000/svg" xmlns:xlink="http://www.w3.org/1999/xlink" width="1032" height="636" viewBox="0 0 1032 636"><style class="text-font-style fontImports" data-font-family="Roboto">@import url(https://fonts.googleapis.com/css2?family=Roboto:wght@400;700&amp;amp;display=block);</style><g id="items" style="isolation: isolate"><g id="blend" style="mix-blend-mode: normal"><g id="g-root-cp_1_g-1_94mopw5w6k97-fill" data-item-order="-531352" transform="translate(38, 122)"><g id="cp_1_g-1_94mopw5w6k97-fill-merged" stroke="none" fill="#507fcc"><g><path d="M84.239 85.6C85.128 82.148 85.6 78.529 85.6 74.8 H150.4C150.4 78.529 150.873 82.148 151.761 85.6 H84.239 M84.239 64C82.053 55.509 77.351 48.028 70.975 42.4 H165.025C158.649 48.028 153.947 55.509 151.761 64 H84.239 M151.761 366.4 H84.239C85.128 369.852 85.6 373.471 85.6 377.2 H150.4C150.4 373.471 150.873 369.852 151.761 366.4 M151.761 388 H84.239C82.053 396.491 77.351 403.972 70.975 409.6 H165.025C158.649 403.972 153.947 396.491 151.761 388 M193.6 107.2C211.494 107.2 226 92.694 226 74.8C226 56.906 211.494 42.4 193.6 42.4C175.706 42.4 161.2 56.906 161.2 74.8C161.2 92.694 175.706 107.2 193.6 107.2 M193.6 96.4C205.529 96.4 215.2 86.729 215.2 74.8C215.2 62.871 205.529 53.2 193.6 53.2C181.671 53.2 172 62.871 172 74.8C172 86.729 181.671 96.4 193.6 96.4 M42.4 107.2C60.294 107.2 74.8 92.694 74.8 74.8C74.8 56.906 60.294 42.4 42.4 42.4C24.506 42.4 10 56.906 10 74.8C10 92.694 24.506 107.2 42.4 107.2 M42.4 96.4C54.329 96.4 64 86.729 64 74.8C64 62.871 54.329 53.2 42.4 53.2C30.471 53.2 20.8 62.871 20.8 74.8C20.8 86.729 30.471 96.4 42.4 96.4 M42.4 409.6C60.294 409.6 74.8 395.094 74.8 377.2C74.8 359.306 60.294 344.8 42.4 344.8C24.506 344.8 10 359.306 10 377.2C10 395.094 24.506 409.6 42.4 409.6 M42.4 398.8C54.329 398.8 64 389.129 64 377.2C64 365.271 54.329 355.6 42.4 355.6C30.471 355.6 20.8 365.271 20.8 377.2C20.8 389.129 30.471 398.8 42.4 398.8 M193.6 409.6C211.494 409.6 226 395.094 226 377.2C226 359.306 211.494 344.8 193.6 344.8C175.706 344.8 161.2 359.306 161.2 377.2C161.2 395.094 175.706 409.6 193.6 409.6 M193.6 398.8C205.529 398.8 215.2 389.129 215.2 377.2C215.2 365.271 205.529 355.6 193.6 355.6C181.671 355.6 172 365.271 172 377.2C172 389.129 181.671 398.8 193.6 398.8 M204.4 74.8C204.4 80.765 199.565 85.6 193.6 85.6C187.635 85.6 182.8 80.765 182.8 74.8C182.8 68.835 187.635 64 193.6 64C199.565 64 204.4 68.835 204.4 74.8 M53.2 74.8C53.2 80.765 48.365 85.6 42.4 85.6C36.435 85.6 31.6 80.765 31.6 74.8C31.6 68.835 36.435 64 42.4 64C48.365 64 53.2 68.835 53.2 74.8 M53.2 377.2C53.2 383.165 48.365 388 42.4 388C36.435 388 31.6 383.165 31.6 377.2C31.6 371.235 36.435 366.4 42.4 366.4C48.365 366.4 53.2 371.235 53.2 377.2 M204.4 377.2C204.4 383.165 199.565 388 193.6 388C187.635 388 182.8 383.165 182.8 377.2C182.8 371.235 187.635 366.4 193.6 366.4C199.565 366.4 204.4 371.235 204.4 377.2 M10 20.8C10 14.835 14.835 10 20.8 10 H215.2C221.165 10 226 14.835 226 20.8C226 26.765 221.165 31.6 215.2 31.6 H20.8C14.835 31.6 10 26.765 10 20.8 M10 431.2C10 425.235 14.835 420.4 20.8 420.4 H215.2C221.165 420.4 226 425.235 226 431.2C226 437.165 221.165 442 215.2 442 H20.8C14.835 442 10 437.165 10 431.2 M79.821 96.4C72.351 109.313 58.39 118 42.4 118C39.526 118 36.717 117.719 34 117.184 V334.816C36.717 334.281 39.526 334 42.4 334C58.39 334 72.351 342.687 79.821 355.6 H156.179C163.649 342.687 177.61 334 193.6 334C196.474 334 199.283 334.281 202 334.816 V117.184C199.283 117.719 196.474 118 193.6 118C177.61 118 163.649 109.313 156.179 96.4 H79.821"></path></g></g></g><g id="g-root-cp_2_g-2_4ot6lg5w6l1g-fill" data-item-order="-531340" transform="translate(278, 122)"><g id="cp_2_g-2_4ot6lg5w6l1g-fill-merged" stroke="none" fill="#4e88e7"><g><path d="M84.239 85.6C85.128 82.148 85.6 78.529 85.6 74.8 H150.4C150.4 78.529 150.873 82.148 151.761 85.6 H84.239 M84.239 64C82.053 55.509 77.351 48.028 70.975 42.4 H165.025C158.649 48.028 153.947 55.509 151.761 64 H84.239 M151.761 366.4 H84.239C85.128 369.852 85.6 373.471 85.6 377.2 H150.4C150.4 373.471 150.873 369.852 151.761 366.4 M151.761 388 H84.239C82.053 396.491 77.351 403.972 70.975 409.6 H165.025C158.649 403.972 153.947 396.491 151.761 388 M193.6 107.2C211.494 107.2 226 92.694 226 74.8C226 56.906 211.494 42.4 193.6 42.4C175.706 42.4 161.2 56.906 161.2 74.8C161.2 92.694 175.706 107.2 193.6 107.2 M193.6 96.4C205.529 96.4 215.2 86.729 215.2 74.8C215.2 62.871 205.529 53.2 193.6 53.2C181.671 53.2 172 62.871 172 74.8C172 86.729 181.671 96.4 193.6 96.4 M42.4 107.2C60.294 107.2 74.8 92.694 74.8 74.8C74.8 56.906 60.294 42.4 42.4 42.4C24.506 42.4 10 56.906 10 74.8C10 92.694 24.506 107.2 42.4 107.2 M42.4 96.4C54.329 96.4 64 86.729 64 74.8C64 62.871 54.329 53.2 42.4 53.2C30.471 53.2 20.8 62.871 20.8 74.8C20.8 86.729 30.471 96.4 42.4 96.4 M42.4 409.6C60.294 409.6 74.8 395.094 74.8 377.2C74.8 359.306 60.294 344.8 42.4 344.8C24.506 344.8 10 359.306 10 377.2C10 395.094 24.506 409.6 42.4 409.6 M42.4 398.8C54.329 398.8 64 389.129 64 377.2C64 365.271 54.329 355.6 42.4 355.6C30.471 355.6 20.8 365.271 20.8 377.2C20.8 389.129 30.471 398.8 42.4 398.8 M193.6 409.6C211.494 409.6 226 395.094 226 377.2C226 359.306 211.494 344.8 193.6 344.8C175.706 344.8 161.2 359.306 161.2 377.2C161.2 395.094 175.706 409.6 193.6 409.6 M193.6 398.8C205.529 398.8 215.2 389.129 215.2 377.2C215.2 365.271 205.529 355.6 193.6 355.6C181.671 355.6 172 365.271 172 377.2C172 389.129 181.671 398.8 193.6 398.8 M204.4 74.8C204.4 80.765 199.565 85.6 193.6 85.6C187.635 85.6 182.8 80.765 182.8 74.8C182.8 68.835 187.635 64 193.6 64C199.565 64 204.4 68.835 204.4 74.8 M53.2 74.8C53.2 80.765 48.365 85.6 42.4 85.6C36.435 85.6 31.6 80.765 31.6 74.8C31.6 68.835 36.435 64 42.4 64C48.365 64 53.2 68.835 53.2 74.8 M53.2 377.2C53.2 383.165 48.365 388 42.4 388C36.435 388 31.6 383.165 31.6 377.2C31.6 371.235 36.435 366.4 42.4 366.4C48.365 366.4 53.2 371.235 53.2 377.2 M204.4 377.2C204.4 383.165 199.565 388 193.6 388C187.635 388 182.8 383.165 182.8 377.2C182.8 371.235 187.635 366.4 193.6 366.4C199.565 366.4 204.4 371.235 204.4 377.2 M10 20.8C10 14.835 14.835 10 20.8 10 H215.2C221.165 10 226 14.835 226 20.8C226 26.765 221.165 31.6 215.2 31.6 H20.8C14.835 31.6 10 26.765 10 20.8 M10 431.2C10 425.235 14.835 420.4 20.8 420.4 H215.2C221.165 420.4 226 425.235 226 431.2C226 437.165 221.165 442 215.2 442 H20.8C14.835 442 10 437.165 10 431.2 M79.821 96.4C72.351 109.313 58.39 118 42.4 118C39.526 118 36.717 117.719 34 117.184 V334.816C36.717 334.281 39.526 334 42.4 334C58.39 334 72.351 342.687 79.821 355.6 H156.179C163.649 342.687 177.61 334 193.6 334C196.474 334 199.283 334.281 202 334.816 V117.184C199.283 117.719 196.474 118 193.6 118C177.61 118 163.649 109.313 156.179 96.4 H79.821"></path></g></g></g><g id="g-root-cp_3_g-3_1qegq785w6mf9-fill" data-item-order="-531328" transform="translate(518, 122)"><g id="cp_3_g-3_1qegq785w6mf9-fill-merged" stroke="none" fill="#4f92ff"><g><path d="M84.239 85.6C85.128 82.148 85.6 78.529 85.6 74.8 H150.4C150.4 78.529 150.873 82.148 151.761 85.6 H84.239 M84.239 64C82.053 55.509 77.351 48.028 70.975 42.4 H165.025C158.649 48.028 153.947 55.509 151.761 64 H84.239 M151.761 366.4 H84.239C85.128 369.852 85.6 373.471 85.6 377.2 H150.4C150.4 373.471 150.873 369.852 151.761 366.4 M151.761 388 H84.239C82.053 396.491 77.351 403.972 70.975 409.6 H165.025C158.649 403.972 153.947 396.491 151.761 388 M193.6 107.2C211.494 107.2 226 92.694 226 74.8C226 56.906 211.494 42.4 193.6 42.4C175.706 42.4 161.2 56.906 161.2 74.8C161.2 92.694 175.706 107.2 193.6 107.2 M193.6 96.4C205.529 96.4 215.2 86.729 215.2 74.8C215.2 62.871 205.529 53.2 193.6 53.2C181.671 53.2 172 62.871 172 74.8C172 86.729 181.671 96.4 193.6 96.4 M42.4 107.2C60.294 107.2 74.8 92.694 74.8 74.8C74.8 56.906 60.294 42.4 42.4 42.4C24.506 42.4 10 56.906 10 74.8C10 92.694 24.506 107.2 42.4 107.2 M42.4 96.4C54.329 96.4 64 86.729 64 74.8C64 62.871 54.329 53.2 42.4 53.2C30.471 53.2 20.8 62.871 20.8 74.8C20.8 86.729 30.471 96.4 42.4 96.4 M42.4 409.6C60.294 409.6 74.8 395.094 74.8 377.2C74.8 359.306 60.294 344.8 42.4 344.8C24.506 344.8 10 359.306 10 377.2C10 395.094 24.506 409.6 42.4 409.6 M42.4 398.8C54.329 398.8 64 389.129 64 377.2C64 365.271 54.329 355.6 42.4 355.6C30.471 355.6 20.8 365.271 20.8 377.2C20.8 389.129 30.471 398.8 42.4 398.8 M193.6 409.6C211.494 409.6 226 395.094 226 377.2C226 359.306 211.494 344.8 193.6 344.8C175.706 344.8 161.2 359.306 161.2 377.2C161.2 395.094 175.706 409.6 193.6 409.6 M193.6 398.8C205.529 398.8 215.2 389.129 215.2 377.2C215.2 365.271 205.529 355.6 193.6 355.6C181.671 355.6 172 365.271 172 377.2C172 389.129 181.671 398.8 193.6 398.8 M204.4 74.8C204.4 80.765 199.565 85.6 193.6 85.6C187.635 85.6 182.8 80.765 182.8 74.8C182.8 68.835 187.635 64 193.6 64C199.565 64 204.4 68.835 204.4 74.8 M53.2 74.8C53.2 80.765 48.365 85.6 42.4 85.6C36.435 85.6 31.6 80.765 31.6 74.8C31.6 68.835 36.435 64 42.4 64C48.365 64 53.2 68.835 53.2 74.8 M53.2 377.2C53.2 383.165 48.365 388 42.4 388C36.435 388 31.6 383.165 31.6 377.2C31.6 371.235 36.435 366.4 42.4 366.4C48.365 366.4 53.2 371.235 53.2 377.2 M204.4 377.2C204.4 383.165 199.565 388 193.6 388C187.635 388 182.8 383.165 182.8 377.2C182.8 371.235 187.635 366.4 193.6 366.4C199.565 366.4 204.4 371.235 204.4 377.2 M10 20.8C10 14.835 14.835 10 20.8 10 H215.2C221.165 10 226 14.835 226 20.8C226 26.765 221.165 31.6 215.2 31.6 H20.8C14.835 31.6 10 26.765 10 20.8 M10 431.2C10 425.235 14.835 420.4 20.8 420.4 H215.2C221.165 420.4 226 425.235 226 431.2C226 437.165 221.165 442 215.2 442 H20.8C14.835 442 10 437.165 10 431.2 M79.821 96.4C72.351 109.313 58.39 118 42.4 118C39.526 118 36.717 117.719 34 117.184 V334.816C36.717 334.281 39.526 334 42.4 334C58.39 334 72.351 342.687 79.821 355.6 H156.179C163.649 342.687 177.61 334 193.6 334C196.474 334 199.283 334.281 202 334.816 V117.184C199.283 117.719 196.474 118 193.6 118C177.61 118 163.649 109.313 156.179 96.4 H79.821"></path></g></g></g><g id="g-root-cp_4_g-4_1qegq785w6mfa-fill" data-item-order="-531316" transform="translate(758, 122)"><g id="cp_4_g-4_1qegq785w6mfa-fill-merged" stroke="none" fill="#95bdff"><g><path d="M84.239 85.6C85.128 82.148 85.6 78.529 85.6 74.8 H150.4C150.4 78.529 150.873 82.148 151.761 85.6 H84.239 M84.239 64C82.053 55.509 77.351 48.028 70.975 42.4 H165.025C158.649 48.028 153.947 55.509 151.761 64 H84.239 M151.761 366.4 H84.239C85.128 369.852 85.6 373.471 85.6 377.2 H150.4C150.4 373.471 150.873 369.852 151.761 366.4 M151.761 388 H84.239C82.053 396.491 77.351 403.972 70.975 409.6 H165.025C158.649 403.972 153.947 396.491 151.761 388 M193.6 107.2C211.494 107.2 226 92.694 226 74.8C226 56.906 211.494 42.4 193.6 42.4C175.706 42.4 161.2 56.906 161.2 74.8C161.2 92.694 175.706 107.2 193.6 107.2 M193.6 96.4C205.529 96.4 215.2 86.729 215.2 74.8C215.2 62.871 205.529 53.2 193.6 53.2C181.671 53.2 172 62.871 172 74.8C172 86.729 181.671 96.4 193.6 96.4 M42.4 107.2C60.294 107.2 74.8 92.694 74.8 74.8C74.8 56.906 60.294 42.4 42.4 42.4C24.506 42.4 10 56.906 10 74.8C10 92.694 24.506 107.2 42.4 107.2 M42.4 96.4C54.329 96.4 64 86.729 64 74.8C64 62.871 54.329 53.2 42.4 53.2C30.471 53.2 20.8 62.871 20.8 74.8C20.8 86.729 30.471 96.4 42.4 96.4 M42.4 409.6C60.294 409.6 74.8 395.094 74.8 377.2C74.8 359.306 60.294 344.8 42.4 344.8C24.506 344.8 10 359.306 10 377.2C10 395.094 24.506 409.6 42.4 409.6 M42.4 398.8C54.329 398.8 64 389.129 64 377.2C64 365.271 54.329 355.6 42.4 355.6C30.471 355.6 20.8 365.271 20.8 377.2C20.8 389.129 30.471 398.8 42.4 398.8 M193.6 409.6C211.494 409.6 226 395.094 226 377.2C226 359.306 211.494 344.8 193.6 344.8C175.706 344.8 161.2 359.306 161.2 377.2C161.2 395.094 175.706 409.6 193.6 409.6 M193.6 398.8C205.529 398.8 215.2 389.129 215.2 377.2C215.2 365.271 205.529 355.6 193.6 355.6C181.671 355.6 172 365.271 172 377.2C172 389.129 181.671 398.8 193.6 398.8 M204.4 74.8C204.4 80.765 199.565 85.6 193.6 85.6C187.635 85.6 182.8 80.765 182.8 74.8C182.8 68.835 187.635 64 193.6 64C199.565 64 204.4 68.835 204.4 74.8 M53.2 74.8C53.2 80.765 48.365 85.6 42.4 85.6C36.435 85.6 31.6 80.765 31.6 74.8C31.6 68.835 36.435 64 42.4 64C48.365 64 53.2 68.835 53.2 74.8 M53.2 377.2C53.2 383.165 48.365 388 42.4 388C36.435 388 31.6 383.165 31.6 377.2C31.6 371.235 36.435 366.4 42.4 366.4C48.365 366.4 53.2 371.235 53.2 377.2 M204.4 377.2C204.4 383.165 199.565 388 193.6 388C187.635 388 182.8 383.165 182.8 377.2C182.8 371.235 187.635 366.4 193.6 366.4C199.565 366.4 204.4 371.235 204.4 377.2 M10 20.8C10 14.835 14.835 10 20.8 10 H215.2C221.165 10 226 14.835 226 20.8C226 26.765 221.165 31.6 215.2 31.6 H20.8C14.835 31.6 10 26.765 10 20.8 M10 431.2C10 425.235 14.835 420.4 20.8 420.4 H215.2C221.165 420.4 226 425.235 226 431.2C226 437.165 221.165 442 215.2 442 H20.8C14.835 442 10 437.165 10 431.2 M79.821 96.4C72.351 109.313 58.39 118 42.4 118C39.526 118 36.717 117.719 34 117.184 V334.816C36.717 334.281 39.526 334 42.4 334C58.39 334 72.351 342.687 79.821 355.6 H156.179C163.649 342.687 177.61 334 193.6 334C196.474 334 199.283 334.281 202 334.816 V117.184C199.283 117.719 196.474 118 193.6 118C177.61 118 163.649 109.313 156.179 96.4 H79.821"></path></g></g></g><g id="g-root-tx_screente_1d3mox05w6kuf-fill" data-item-order="0" transform="translate(338, 38)"><g id="tx_screente_1d3mox05w6kuf-fill-merged" stroke="none" fill="#484848"><g><text style="font: bold 25px Roboto, sans-serif; white-space: pre;" font-weight="bold" font-size="25px" font-family="Roboto, sans-serif"><tspan x="16.4" y="42.6" dominant-baseline="ideographic">Screen Technology Overview</tspan></text></g></g></g><g id="g-root-tx_lcdtechn_qqaffo5w7zsw-fill" data-item-order="0" transform="translate(86, 254)"><g id="tx_lcdtechn_qqaffo5w7zsw-fill-merged" stroke="none" fill="#ffffff"><g><text style="font: bold 20px Roboto, sans-serif; white-space: pre;" font-weight="bold" font-size="20px" font-family="Roboto, sans-serif"><tspan x="52" y="34" dominant-baseline="ideographic">LCD </tspan><tspan x="17.6" y="58" dominant-baseline="ideographic">Technology</tspan></text></g></g></g><g id="g-root-tx_ledtechn_1q6cn8k5vmwaq-fill" data-item-order="0" transform="translate(326, 254)"><g id="tx_ledtechn_1q6cn8k5vmwaq-fill-merged" stroke="none" fill="#ffffff"><g><text style="font: bold 20px Roboto, sans-serif; white-space: pre;" font-weight="bold" font-size="20px" font-family="Roboto, sans-serif"><tspan x="52.4" y="34" dominant-baseline="ideographic">LED </tspan><tspan x="17.6" y="58" dominant-baseline="ideographic">Technology</tspan></text></g></g></g><g id="g-root-tx_oledtech_qunu785vmyo4-fill" data-item-order="0" transform="translate(566, 254)"><g id="tx_oledtech_qunu785vmyo4-fill-merged" stroke="none" fill="#ffffff"><g><text style="font: bold 20px Roboto, sans-serif; white-space: pre;" font-weight="bold" font-size="20px" font-family="Roboto, sans-serif"><tspan x="45.6" y="34" dominant-baseline="ideographic">OLED </tspan><tspan x="17.6" y="58" dominant-baseline="ideographic">Technology</tspan></text></g></g></g><g id="g-root-tx_einktech_1qapyuc5voc92-fill" data-item-order="0" transform="translate(806, 254)"><g id="tx_einktech_1qapyuc5voc92-fill-merged" stroke="none" fill="#ffffff"><g><text style="font: bold 20px Roboto, sans-serif; white-space: pre;" font-weight="bold" font-size="20px" font-family="Roboto, sans-serif"><tspan x="46.8" y="34" dominant-baseline="ideographic">E-Ink </tspan><tspan x="17.6" y="58" dominant-baseline="ideographic">Technology</tspan></text></g></g></g><g id="g-root-tx_commonin_dhyahw5w81s9-fill" data-item-order="0" transform="translate(74, 314)"><g id="tx_commonin_dhyahw5w81s9-fill-merged" stroke="none" fill="#ffffff"><g><text style="font: 15px Roboto, sans-serif; white-space: pre;" font-size="15px" font-family="Roboto, sans-serif"><tspan x="40.6" y="30.6" dominant-baseline="ideographic">Common in </tspan><tspan x="35" y="48.6" dominant-baseline="ideographic">monitors and </tspan><tspan x="13.4" y="66.6" dominant-baseline="ideographic">smartphones, using </tspan><tspan x="18.6" y="84.6" dominant-baseline="ideographic">liquid crystals and </tspan><tspan x="36.6" y="102.6" dominant-baseline="ideographic">backlighting.</tspan></text></g></g></g><g id="g-root-tx_anenhanc_1cy0ias5vmya3-fill" data-item-order="0" transform="translate(320, 314)"><g id="tx_anenhanc_1cy0ias5vmya3-fill-merged" stroke="none" fill="#ffffff"><g><text style="font: 15px Roboto, sans-serif; white-space: pre;" font-size="15px" font-family="Roboto, sans-serif"><tspan x="14.4" y="30.6" dominant-baseline="ideographic">An enhanced LCD </tspan><tspan x="18" y="48.6" dominant-baseline="ideographic">version with LED </tspan><tspan x="20.4" y="66.6" dominant-baseline="ideographic">backlighting for </tspan><tspan x="23.2" y="84.6" dominant-baseline="ideographic">brightness and </tspan><tspan x="40" y="102.6" dominant-baseline="ideographic">efficiency.</tspan></text></g></g></g><g id="g-root-tx_highends_m8ll7o5vob9h-fill" data-item-order="0" transform="translate(554, 314)"><g id="tx_highends_m8ll7o5vob9h-fill-merged" stroke="none" fill="#ffffff"><g><text style="font: 15px Roboto, sans-serif; white-space: pre;" font-size="15px" font-family="Roboto, sans-serif"><tspan x="20.4" y="27.6" dominant-baseline="ideographic">High-end screens </tspan><tspan x="31.2" y="45.6" dominant-baseline="ideographic">offering better </tspan><tspan x="15.6" y="63.6" dominant-baseline="ideographic">contrast and faster </tspan><tspan x="25.2" y="81.6" dominant-baseline="ideographic">response times.</tspan></text></g></g></g><g id="g-root-tx_mimicspa_zrjsmc5vocnj-fill" data-item-order="0" transform="translate(794, 314)"><g id="tx_mimicspa_zrjsmc5vocnj-fill-merged" stroke="none" fill="#ffffff"><g><text style="font: 15px Roboto, sans-serif; white-space: pre;" font-size="15px" font-family="Roboto, sans-serif"><tspan x="15.6" y="27.6" dominant-baseline="ideographic">Mimics paper for e-</tspan><tspan x="23.6" y="45.6" dominant-baseline="ideographic">readers, reducing </tspan><tspan x="25.6" y="63.6" dominant-baseline="ideographic">eye strain during </tspan><tspan x="54.4" y="81.6" dominant-baseline="ideographic">reading.</tspan></text></g></g></g><g id="g-root-cp_1_g-1_94mopw5w6k97-stroke" data-item-order="-531352" transform="translate(38, 122)"><g id="cp_1_g-1_94mopw5w6k97-stroke" fill="none" stroke-linecap="round" stroke-linejoin="round" stroke-miterlimit="4" stroke="#ffffff" stroke-width="1"><g><path d="M 84.239 85.6C 85.1275 82.1481 85.6 78.5292 85.6 74.8L 150.4 74.8C 150.4 78.5292 150.8725 82.1481 151.761 85.6L 84.239 85.6ZM 84.239 64C 82.0535 55.5088 77.3513 48.0279 70.9749 42.4L 165.0251 42.4C 158.6487 48.0279 153.9465 55.5088 151.761 64L 84.239 64ZM 151.761 366.4L 84.239 366.4C 85.1275 369.8519 85.6 373.4707 85.6 377.2L 150.4 377.2C 150.4 373.4707 150.8725 369.8519 151.761 366.4ZM 151.761 388L 84.239 388C 82.0535 396.4912 77.3513 403.9721 70.9749 409.6L 165.0251 409.6C 158.6487 403.9721 153.9465 396.4912 151.761 388ZM 193.6 107.2C 211.494 107.2 226 92.694 226 74.8C 226 56.906 211.494 42.4 193.6 42.4C 175.706 42.4 161.2 56.906 161.2 74.8C 161.2 92.694 175.706 107.2 193.6 107.2ZM 193.6 96.4C 205.5293 96.4 215.2 86.7293 215.2 74.8C 215.2 62.8707 205.5293 53.2 193.6 53.2C 181.6707 53.2 172 62.8707 172 74.8C 172 86.7293 181.6707 96.4 193.6 96.4ZM 42.4 107.2C 60.294 107.2 74.8 92.694 74.8 74.8C 74.8 56.906 60.294 42.4 42.4 42.4C 24.506 42.4 10 56.906 10 74.8C 10 92.694 24.506 107.2 42.4 107.2ZM 42.4 96.4C 54.3293 96.4 64 86.7293 64 74.8C 64 62.8706 54.3293 53.2 42.4 53.2C 30.4706 53.2 20.8 62.8706 20.8 74.8C 20.8 86.7293 30.4706 96.4 42.4 96.4ZM 42.4 409.6C 60.294 409.6 74.8 395.094 74.8 377.2C 74.8 359.306 60.294 344.8 42.4 344.8C 24.506 344.8 10 359.306 10 377.2C 10 395.094 24.506 409.6 42.4 409.6ZM 42.4 398.8C 54.3293 398.8 64 389.1293 64 377.2C 64 365.2706 54.3293 355.6 42.4 355.6C 30.4706 355.6 20.8 365.2706 20.8 377.2C 20.8 389.1293 30.4706 398.8 42.4 398.8ZM 193.6 409.6C 211.494 409.6 226 395.094 226 377.2C 226 359.306 211.494 344.8 193.6 344.8C 175.706 344.8 161.2 359.306 161.2 377.2C 161.2 395.094 175.706 409.6 193.6 409.6ZM 193.6 398.8C 205.5293 398.8 215.2 389.1293 215.2 377.2C 215.2 365.2706 205.5293 355.6 193.6 355.6C 181.6706 355.6 172 365.2706 172 377.2C 172 389.1293 181.6706 398.8 193.6 398.8ZM 204.4 74.8C 204.4 80.7647 199.5647 85.6 193.6 85.6C 187.6353 85.6 182.8 80.7647 182.8 74.8C 182.8 68.8353 187.6353 64 193.6 64C 199.5647 64 204.4 68.8353 204.4 74.8ZM 53.2 74.8C 53.2 80.7647 48.3647 85.6 42.4 85.6C 36.4353 85.6 31.6 80.7647 31.6 74.8C 31.6 68.8353 36.4353 64 42.4 64C 48.3647 64 53.2 68.8353 53.2 74.8ZM 53.2 377.2C 53.2 383.1647 48.3647 388 42.4 388C 36.4353 388 31.6 383.1647 31.6 377.2C 31.6 371.2353 36.4353 366.4 42.4 366.4C 48.3647 366.4 53.2 371.2353 53.2 377.2ZM 204.4 377.2C 204.4 383.1647 199.5647 388 193.6 388C 187.6353 388 182.8 383.1647 182.8 377.2C 182.8 371.2353 187.6353 366.4 193.6 366.4C 199.5647 366.4 204.4 371.2353 204.4 377.2ZM 10 20.8C 10 14.8353 14.8353 10 20.8 10L 215.2 10C 221.1647 10 226 14.8353 226 20.8C 226 26.7647 221.1647 31.6 215.2 31.6L 20.8 31.6C 14.8353 31.6 10 26.7647 10 20.8ZM 10 431.2C 10 425.2353 14.8353 420.4 20.8 420.4L 215.2 420.4C 221.1647 420.4 226 425.2353 226 431.2C 226 437.1647 221.1647 442 215.2 442L 20.8 442C 14.8353 442 10 437.1647 10 431.2ZM 79.8206 96.4C 72.3511 109.3125 58.3901 118 42.4 118C 39.5258 118 36.7172 117.7193 34 117.1839L 34 334.8162C 36.7172 334.2807 39.5258 334 42.4 334C 58.3901 334 72.3511 342.6875 79.8206 355.6L 156.1794 355.6C 163.6489 342.6875 177.6099 334 193.6 334C 196.4742 334 199.2829 334.2807 202 334.8162L 202 117.1838C 199.2828 117.7193 196.4742 118 193.6 118C 177.6099 118 163.6489 109.3125 156.1794 96.4L 79.8206 96.4Z"></path></g></g></g><g id="g-root-cp_2_g-2_4ot6lg5w6l1g-stroke" data-item-order="-531340" transform="translate(278, 122)"><g id="cp_2_g-2_4ot6lg5w6l1g-stroke" fill="none" stroke-linecap="round" stroke-linejoin="round" stroke-miterlimit="4" stroke="#ffffff" stroke-width="1"><g><path d="M 84.239 85.6C 85.1275 82.1481 85.6 78.5292 85.6 74.8L 150.4 74.8C 150.4 78.5292 150.8725 82.1481 151.761 85.6L 84.239 85.6ZM 84.239 64C 82.0535 55.5088 77.3513 48.0279 70.9749 42.4L 165.0251 42.4C 158.6487 48.0279 153.9465 55.5088 151.761 64L 84.239 64ZM 151.761 366.4L 84.239 366.4C 85.1275 369.8519 85.6 373.4707 85.6 377.2L 150.4 377.2C 150.4 373.4707 150.8725 369.8519 151.761 366.4ZM 151.761 388L 84.239 388C 82.0535 396.4912 77.3513 403.9721 70.9749 409.6L 165.0251 409.6C 158.6487 403.9721 153.9465 396.4912 151.761 388ZM 193.6 107.2C 211.494 107.2 226 92.694 226 74.8C 226 56.906 211.494 42.4 193.6 42.4C 175.706 42.4 161.2 56.906 161.2 74.8C 161.2 92.694 175.706 107.2 193.6 107.2ZM 193.6 96.4C 205.5293 96.4 215.2 86.7293 215.2 74.8C 215.2 62.8707 205.5293 53.2 193.6 53.2C 181.6707 53.2 172 62.8707 172 74.8C 172 86.7293 181.6707 96.4 193.6 96.4ZM 42.4 107.2C 60.294 107.2 74.8 92.694 74.8 74.8C 74.8 56.906 60.294 42.4 42.4 42.4C 24.506 42.4 10 56.906 10 74.8C 10 92.694 24.506 107.2 42.4 107.2ZM 42.4 96.4C 54.3293 96.4 64 86.7293 64 74.8C 64 62.8706 54.3293 53.2 42.4 53.2C 30.4706 53.2 20.8 62.8706 20.8 74.8C 20.8 86.7293 30.4706 96.4 42.4 96.4ZM 42.4 409.6C 60.294 409.6 74.8 395.094 74.8 377.2C 74.8 359.306 60.294 344.8 42.4 344.8C 24.506 344.8 10 359.306 10 377.2C 10 395.094 24.506 409.6 42.4 409.6ZM 42.4 398.8C 54.3293 398.8 64 389.1293 64 377.2C 64 365.2706 54.3293 355.6 42.4 355.6C 30.4706 355.6 20.8 365.2706 20.8 377.2C 20.8 389.1293 30.4706 398.8 42.4 398.8ZM 193.6 409.6C 211.494 409.6 226 395.094 226 377.2C 226 359.306 211.494 344.8 193.6 344.8C 175.706 344.8 161.2 359.306 161.2 377.2C 161.2 395.094 175.706 409.6 193.6 409.6ZM 193.6 398.8C 205.5293 398.8 215.2 389.1293 215.2 377.2C 215.2 365.2706 205.5293 355.6 193.6 355.6C 181.6706 355.6 172 365.2706 172 377.2C 172 389.1293 181.6706 398.8 193.6 398.8ZM 204.4 74.8C 204.4 80.7647 199.5647 85.6 193.6 85.6C 187.6353 85.6 182.8 80.7647 182.8 74.8C 182.8 68.8353 187.6353 64 193.6 64C 199.5647 64 204.4 68.8353 204.4 74.8ZM 53.2 74.8C 53.2 80.7647 48.3647 85.6 42.4 85.6C 36.4353 85.6 31.6 80.7647 31.6 74.8C 31.6 68.8353 36.4353 64 42.4 64C 48.3647 64 53.2 68.8353 53.2 74.8ZM 53.2 377.2C 53.2 383.1647 48.3647 388 42.4 388C 36.4353 388 31.6 383.1647 31.6 377.2C 31.6 371.2353 36.4353 366.4 42.4 366.4C 48.3647 366.4 53.2 371.2353 53.2 377.2ZM 204.4 377.2C 204.4 383.1647 199.5647 388 193.6 388C 187.6353 388 182.8 383.1647 182.8 377.2C 182.8 371.2353 187.6353 366.4 193.6 366.4C 199.5647 366.4 204.4 371.2353 204.4 377.2ZM 10 20.8C 10 14.8353 14.8353 10 20.8 10L 215.2 10C 221.1647 10 226 14.8353 226 20.8C 226 26.7647 221.1647 31.6 215.2 31.6L 20.8 31.6C 14.8353 31.6 10 26.7647 10 20.8ZM 10 431.2C 10 425.2353 14.8353 420.4 20.8 420.4L 215.2 420.4C 221.1647 420.4 226 425.2353 226 431.2C 226 437.1647 221.1647 442 215.2 442L 20.8 442C 14.8353 442 10 437.1647 10 431.2ZM 79.8206 96.4C 72.3511 109.3125 58.3901 118 42.4 118C 39.5258 118 36.7172 117.7193 34 117.1839L 34 334.8162C 36.7172 334.2807 39.5258 334 42.4 334C 58.3901 334 72.3511 342.6875 79.8206 355.6L 156.1794 355.6C 163.6489 342.6875 177.6099 334 193.6 334C 196.4742 334 199.2829 334.2807 202 334.8162L 202 117.1838C 199.2828 117.7193 196.4742 118 193.6 118C 177.6099 118 163.6489 109.3125 156.1794 96.4L 79.8206 96.4Z"></path></g></g></g><g id="g-root-cp_3_g-3_1qegq785w6mf9-stroke" data-item-order="-531328" transform="translate(518, 122)"><g id="cp_3_g-3_1qegq785w6mf9-stroke" fill="none" stroke-linecap="round" stroke-linejoin="round" stroke-miterlimit="4" stroke="#ffffff" stroke-width="1"><g><path d="M 84.239 85.6C 85.1275 82.1481 85.6 78.5292 85.6 74.8L 150.4 74.8C 150.4 78.5292 150.8725 82.1481 151.761 85.6L 84.239 85.6ZM 84.239 64C 82.0535 55.5088 77.3513 48.0279 70.9749 42.4L 165.0251 42.4C 158.6487 48.0279 153.9465 55.5088 151.761 64L 84.239 64ZM 151.761 366.4L 84.239 366.4C 85.1275 369.8519 85.6 373.4707 85.6 377.2L 150.4 377.2C 150.4 373.4707 150.8725 369.8519 151.761 366.4ZM 151.761 388L 84.239 388C 82.0535 396.4912 77.3513 403.9721 70.9749 409.6L 165.0251 409.6C 158.6487 403.9721 153.9465 396.4912 151.761 388ZM 193.6 107.2C 211.494 107.2 226 92.694 226 74.8C 226 56.906 211.494 42.4 193.6 42.4C 175.706 42.4 161.2 56.906 161.2 74.8C 161.2 92.694 175.706 107.2 193.6 107.2ZM 193.6 96.4C 205.5293 96.4 215.2 86.7293 215.2 74.8C 215.2 62.8707 205.5293 53.2 193.6 53.2C 181.6707 53.2 172 62.8707 172 74.8C 172 86.7293 181.6707 96.4 193.6 96.4ZM 42.4 107.2C 60.294 107.2 74.8 92.694 74.8 74.8C 74.8 56.906 60.294 42.4 42.4 42.4C 24.506 42.4 10 56.906 10 74.8C 10 92.694 24.506 107.2 42.4 107.2ZM 42.4 96.4C 54.3293 96.4 64 86.7293 64 74.8C 64 62.8706 54.3293 53.2 42.4 53.2C 30.4706 53.2 20.8 62.8706 20.8 74.8C 20.8 86.7293 30.4706 96.4 42.4 96.4ZM 42.4 409.6C 60.294 409.6 74.8 395.094 74.8 377.2C 74.8 359.306 60.294 344.8 42.4 344.8C 24.506 344.8 10 359.306 10 377.2C 10 395.094 24.506 409.6 42.4 409.6ZM 42.4 398.8C 54.3293 398.8 64 389.1293 64 377.2C 64 365.2706 54.3293 355.6 42.4 355.6C 30.4706 355.6 20.8 365.2706 20.8 377.2C 20.8 389.1293 30.4706 398.8 42.4 398.8ZM 193.6 409.6C 211.494 409.6 226 395.094 226 377.2C 226 359.306 211.494 344.8 193.6 344.8C 175.706 344.8 161.2 359.306 161.2 377.2C 161.2 395.094 175.706 409.6 193.6 409.6ZM 193.6 398.8C 205.5293 398.8 215.2 389.1293 215.2 377.2C 215.2 365.2706 205.5293 355.6 193.6 355.6C 181.6706 355.6 172 365.2706 172 377.2C 172 389.1293 181.6706 398.8 193.6 398.8ZM 204.4 74.8C 204.4 80.7647 199.5647 85.6 193.6 85.6C 187.6353 85.6 182.8 80.7647 182.8 74.8C 182.8 68.8353 187.6353 64 193.6 64C 199.5647 64 204.4 68.8353 204.4 74.8ZM 53.2 74.8C 53.2 80.7647 48.3647 85.6 42.4 85.6C 36.4353 85.6 31.6 80.7647 31.6 74.8C 31.6 68.8353 36.4353 64 42.4 64C 48.3647 64 53.2 68.8353 53.2 74.8ZM 53.2 377.2C 53.2 383.1647 48.3647 388 42.4 388C 36.4353 388 31.6 383.1647 31.6 377.2C 31.6 371.2353 36.4353 366.4 42.4 366.4C 48.3647 366.4 53.2 371.2353 53.2 377.2ZM 204.4 377.2C 204.4 383.1647 199.5647 388 193.6 388C 187.6353 388 182.8 383.1647 182.8 377.2C 182.8 371.2353 187.6353 366.4 193.6 366.4C 199.5647 366.4 204.4 371.2353 204.4 377.2ZM 10 20.8C 10 14.8353 14.8353 10 20.8 10L 215.2 10C 221.1647 10 226 14.8353 226 20.8C 226 26.7647 221.1647 31.6 215.2 31.6L 20.8 31.6C 14.8353 31.6 10 26.7647 10 20.8ZM 10 431.2C 10 425.2353 14.8353 420.4 20.8 420.4L 215.2 420.4C 221.1647 420.4 226 425.2353 226 431.2C 226 437.1647 221.1647 442 215.2 442L 20.8 442C 14.8353 442 10 437.1647 10 431.2ZM 79.8206 96.4C 72.3511 109.3125 58.3901 118 42.4 118C 39.5258 118 36.7172 117.7193 34 117.1839L 34 334.8162C 36.7172 334.2807 39.5258 334 42.4 334C 58.3901 334 72.3511 342.6875 79.8206 355.6L 156.1794 355.6C 163.6489 342.6875 177.6099 334 193.6 334C 196.4742 334 199.2829 334.2807 202 334.8162L 202 117.1838C 199.2828 117.7193 196.4742 118 193.6 118C 177.6099 118 163.6489 109.3125 156.1794 96.4L 79.8206 96.4Z"></path></g></g></g><g id="g-root-cp_4_g-4_1qegq785w6mfa-stroke" data-item-order="-531316" transform="translate(758, 122)"><g id="cp_4_g-4_1qegq785w6mfa-stroke" fill="none" stroke-linecap="round" stroke-linejoin="round" stroke-miterlimit="4" stroke="#ffffff" stroke-width="1"><g><path d="M 84.239 85.6C 85.1275 82.1481 85.6 78.5292 85.6 74.8L 150.4 74.8C 150.4 78.5292 150.8725 82.1481 151.761 85.6L 84.239 85.6ZM 84.239 64C 82.0535 55.5088 77.3513 48.0279 70.9749 42.4L 165.0251 42.4C 158.6487 48.0279 153.9465 55.5088 151.761 64L 84.239 64ZM 151.761 366.4L 84.239 366.4C 85.1275 369.8519 85.6 373.4707 85.6 377.2L 150.4 377.2C 150.4 373.4707 150.8725 369.8519 151.761 366.4ZM 151.761 388L 84.239 388C 82.0535 396.4912 77.3513 403.9721 70.9749 409.6L 165.0251 409.6C 158.6487 403.9721 153.9465 396.4912 151.761 388ZM 193.6 107.2C 211.494 107.2 226 92.694 226 74.8C 226 56.906 211.494 42.4 193.6 42.4C 175.706 42.4 161.2 56.906 161.2 74.8C 161.2 92.694 175.706 107.2 193.6 107.2ZM 193.6 96.4C 205.5293 96.4 215.2 86.7293 215.2 74.8C 215.2 62.8707 205.5293 53.2 193.6 53.2C 181.6707 53.2 172 62.8707 172 74.8C 172 86.7293 181.6707 96.4 193.6 96.4ZM 42.4 107.2C 60.294 107.2 74.8 92.694 74.8 74.8C 74.8 56.906 60.294 42.4 42.4 42.4C 24.506 42.4 10 56.906 10 74.8C 10 92.694 24.506 107.2 42.4 107.2ZM 42.4 96.4C 54.3293 96.4 64 86.7293 64 74.8C 64 62.8706 54.3293 53.2 42.4 53.2C 30.4706 53.2 20.8 62.8706 20.8 74.8C 20.8 86.7293 30.4706 96.4 42.4 96.4ZM 42.4 409.6C 60.294 409.6 74.8 395.094 74.8 377.2C 74.8 359.306 60.294 344.8 42.4 344.8C 24.506 344.8 10 359.306 10 377.2C 10 395.094 24.506 409.6 42.4 409.6ZM 42.4 398.8C 54.3293 398.8 64 389.1293 64 377.2C 64 365.2706 54.3293 355.6 42.4 355.6C 30.4706 355.6 20.8 365.2706 20.8 377.2C 20.8 389.1293 30.4706 398.8 42.4 398.8ZM 193.6 409.6C 211.494 409.6 226 395.094 226 377.2C 226 359.306 211.494 344.8 193.6 344.8C 175.706 344.8 161.2 359.306 161.2 377.2C 161.2 395.094 175.706 409.6 193.6 409.6ZM 193.6 398.8C 205.5293 398.8 215.2 389.1293 215.2 377.2C 215.2 365.2706 205.5293 355.6 193.6 355.6C 181.6706 355.6 172 365.2706 172 377.2C 172 389.1293 181.6706 398.8 193.6 398.8ZM 204.4 74.8C 204.4 80.7647 199.5647 85.6 193.6 85.6C 187.6353 85.6 182.8 80.7647 182.8 74.8C 182.8 68.8353 187.6353 64 193.6 64C 199.5647 64 204.4 68.8353 204.4 74.8ZM 53.2 74.8C 53.2 80.7647 48.3647 85.6 42.4 85.6C 36.4353 85.6 31.6 80.7647 31.6 74.8C 31.6 68.8353 36.4353 64 42.4 64C 48.3647 64 53.2 68.8353 53.2 74.8ZM 53.2 377.2C 53.2 383.1647 48.3647 388 42.4 388C 36.4353 388 31.6 383.1647 31.6 377.2C 31.6 371.2353 36.4353 366.4 42.4 366.4C 48.3647 366.4 53.2 371.2353 53.2 377.2ZM 204.4 377.2C 204.4 383.1647 199.5647 388 193.6 388C 187.6353 388 182.8 383.1647 182.8 377.2C 182.8 371.2353 187.6353 366.4 193.6 366.4C 199.5647 366.4 204.4 371.2353 204.4 377.2ZM 10 20.8C 10 14.8353 14.8353 10 20.8 10L 215.2 10C 221.1647 10 226 14.8353 226 20.8C 226 26.7647 221.1647 31.6 215.2 31.6L 20.8 31.6C 14.8353 31.6 10 26.7647 10 20.8ZM 10 431.2C 10 425.2353 14.8353 420.4 20.8 420.4L 215.2 420.4C 221.1647 420.4 226 425.2353 226 431.2C 226 437.1647 221.1647 442 215.2 442L 20.8 442C 14.8353 442 10 437.1647 10 431.2ZM 79.8206 96.4C 72.3511 109.3125 58.3901 118 42.4 118C 39.5258 118 36.7172 117.7193 34 117.1839L 34 334.8162C 36.7172 334.2807 39.5258 334 42.4 334C 58.3901 334 72.3511 342.6875 79.8206 355.6L 156.1794 355.6C 163.6489 342.6875 177.6099 334 193.6 334C 196.4742 334 199.2829 334.2807 202 334.8162L 202 117.1838C 199.2828 117.7193 196.4742 118 193.6 118C 177.6099 118 163.6489 109.3125 156.1794 96.4L 79.8206 96.4Z"></path></g></g></g><g id="g-root-tx_screente_1d3mox05w6kuf-stroke" data-item-order="0" transform="translate(338, 38)"></g><g id="g-root-tx_lcdtechn_qqaffo5w7zsw-stroke" data-item-order="0" transform="translate(86, 254)"></g><g id="g-root-tx_ledtechn_1q6cn8k5vmwaq-stroke" data-item-order="0" transform="translate(326, 254)"></g><g id="g-root-tx_oledtech_qunu785vmyo4-stroke" data-item-order="0" transform="translate(566, 254)"></g><g id="g-root-tx_einktech_1qapyuc5voc92-stroke" data-item-order="0" transform="translate(806, 254)"></g><g id="g-root-tx_commonin_dhyahw5w81s9-stroke" data-item-order="0" transform="translate(74, 314)"></g><g id="g-root-tx_anenhanc_1cy0ias5vmya3-stroke" data-item-order="0" transform="translate(320, 314)"></g><g id="g-root-tx_highends_m8ll7o5vob9h-stroke" data-item-order="0" transform="translate(554, 314)"></g><g id="g-root-tx_mimicspa_zrjsmc5vocnj-stroke" data-item-order="0" transform="translate(794, 314)"></g></g></g><path id="wqpnijo6q6sco" d="M65.283 12.757a.35.35 0 0 0 .584.157l5.203-5.141-6.183 3.523.396 1.461zm-2.216-11.7a.35.35 0 0 0-.522.305v3.111l3.276-1.868-2.754-1.548zm3.728 2.105l-4.25 2.421v2.445l6.391-3.644-2.141-1.222zm4.708 3.303a.35.35 0 0 0 0-.609l-1.592-.9-7.365 4.199v1.782a.35.35 0 0 0 .523.305l8.435-4.777z M44.542 2.513c0-.433.355-.783.792-.783s.792.35.792.783-.355.783-.792.783-.792-.35-.792-.783zm59.171 0c0-.433.355-.783.792-.783s.792.35.792.783-.355.783-.792.783-.792-.35-.792-.783zm-85.951 7.636h-1.27v-.487c-.276.201-.864.609-1.881.609-1.202 0-2.274-.794-2.137-2.078.118-1.106 1.153-1.584 1.848-1.727l2.17-.345c0-.539-.29-.956-1.064-1.006s-1.21.305-1.571 1.017l-1.124-.605c1.218-2.631 5.029-1.764 5.029.414v4.207zm-1.27-2.86c.006.396-.062 1.112-.819 1.59-.587.37-1.841.299-1.903-.395-.049-.555.461-.791.906-.898l1.816-.297zm72.662 2.86h-1.27v-.487c-.276.201-.864.609-1.881.609-1.202 0-2.274-.794-2.137-2.078.118-1.106 1.153-1.584 1.848-1.727l2.17-.345c0-.539-.29-.956-1.064-1.006s-1.21.305-1.571 1.017l-1.124-.605c1.218-2.631 5.029-1.764 5.029.414v4.207zm-1.27-2.86c.006.396-.062 1.112-.82 1.59-.587.37-1.841.299-1.903-.395-.049-.555.461-.791.906-.898l1.816-.297zM99.096 10.149H97.85v-8.45h1.246v4.895l2.68-2.559h1.738l-2.633 2.535 2.715 3.578h-1.556l-2.077-2.707-.867.844v1.863zm6.053-6.114h-1.255v6.113h1.255V4.035zm-59.2 0h-1.255v6.113h1.255V4.035zm5.584 6.113V1.697h1.255v2.695c.361-.346 1-.485 1.47-.485 1.452 0 2.477 1.082 2.457 2.448v3.792h-1.27v-3.68c0-.408-.214-1.339-1.315-1.339-.968 0-1.342.756-1.342 1.339v3.681h-1.255zm-4.76-4.894V4.039h.621a.45.45 0 0 0 .45-.45v-.855h1.251v1.305h1.309v1.215h-1.309v3.109c0 .293.105.664.648.664.365 0 .531-.035.736-.07v1.137s-.361.113-.857.113c-1.398 0-1.777-1.051-1.777-1.788V5.254h-1.071zM36.528 4.039h-1.394l2.191 6.106h1.125l1.234-3.918 1.238 3.918h1.129l2.188-6.106h-1.383l-1.359 3.93-1.256-3.93h-1.124l-1.242 3.957-1.348-3.957zM26.212 7.141c-.02 1.566 1.187 3.129 3.223 3.129 1.566 0 2.383-.918 2.734-1.719L31.172 8c-.315.399-.801 1.094-1.738 1.094-1.145 0-1.825-.781-1.891-1.52h4.625c.074-.284.148-.995-.03-1.559-.336-1.064-1.221-2.102-2.839-2.102s-3.088 1.152-3.088 3.227zm1.363-.75h3.348c-.055-.43-.566-1.301-1.623-1.301a1.79 1.79 0 0 0-1.725 1.301zm-8.758.75c.038 1.758 1.277 3.133 3.145 3.133 1.074 0 1.723-.477 1.961-.672v.547h1.242V1.703h-1.258v2.888c-.414-.36-1.062-.68-1.93-.68-1.91 0-3.198 1.473-3.16 3.23zm1.309-.08c0 1.119.723 1.978 1.836 1.978a1.88 1.88 0 0 0 1.94-1.904c0-1.371-1.011-1.99-1.972-1.99s-1.805.798-1.805 1.916zm76.683-.028C96.771 5.275 95.532 3.9 93.664 3.9c-1.074 0-1.723.477-1.961.672v-.547h-1.242v8.22h1.258V9.583c.414.36 1.063.68 1.93.68 1.91 0 3.198-1.473 3.16-3.23zm-1.309.08c0-1.119-.723-1.978-1.836-1.978a1.88 1.88 0 0 0-1.94 1.904c0 1.371 1.011 1.99 1.972 1.99S95.5 8.231 95.5 7.113zM106.441 10.173V4.036h1.254v.382c.361-.346 1-.485 1.47-.485 1.452 0 2.477 1.082 2.457 2.448v3.792h-1.27V6.492c0-.408-.214-1.339-1.315-1.339-.969 0-1.342.756-1.342 1.339v3.681h-1.254zm-30.383-.021V1.824h1.084l4.215 5.777V1.824h1.32v8.328h-1.094l-4.207-5.796v5.796h-1.319zM5.24 10.149H4V2.377h1.014l2.664 3.597 2.654-3.592h1.03v7.766h-1.256V4.762L7.678 8.068 5.24 4.742v5.407z" transform="translate(896, 602)" fill="#80808088" stroke="none"></path></svg>